<?xml version="1.0" encoding="utf-8"?>
<svg x="0pt" y="0pt" width="2388pt" height="1668pt" viewBox="0 0 2388 1668" xmlns="http://www.w3.org/2000/svg" xmlns:xlink="http://www.w3.org/1999/xlink">
  <g id="si">
    <path id="Path 51" style="fill:#21c45d;fill-opacity:1;fill-rule:nonzero;opacity:1;stroke:#21c45d;stroke-linecap:round;stroke-linejoin:round;stroke-miterlimit:10;stroke-opacity:1;stroke-width:1;" d="M1797.84,446.387 C1807.69,420.754,1820.55,404.236,1827.65,403.72 C1827.68,403.718,1827.71,403.732,1827.73,403.757 C1827.73,403.757,1827.84,403.922,1827.84,403.922 C1908.57,524.237,1955.66,668.982,1955.66,824.717 C1955.66,1242.58,1616.64,1581.32,1198.44,1581.32 C780.232,1581.32,441.211,1242.58,441.211,824.717 C441.211,406.859,780.232,68.1185,1198.44,68.1185 C1390.32,68.1185,1565.54,139.433,1698.99,256.984 C1699.02,257.015,1699.02,257.068,1698.99,257.103 C1644.59,318.71,1540.56,279.414,1516.34,267.458 C1514.73,266.549,1513.12,265.646,1511.5,264.75 C1418.51,213.16,1311.52,183.788,1197.68,183.788 C839.464,183.788,549.076,474.604,549.076,833.343 C549.076,1192.08,839.464,1482.9,1197.68,1482.9 C1555.89,1482.9,1846.28,1192.08,1846.28,833.343 C1846.28,744.619,1828.51,660.049,1796.35,583.006 C1796.35,583.006,1796.35,583.004,1796.35,583.004 C1796.35,583.004,1796.35,583.001,1796.35,583.001 C1795.82,581.716,1795.28,580.435,1794.73,579.155 C1794.23,577.978,1793.73,576.802,1793.22,575.628 C1793.22,575.628,1793.22,575.626,1793.22,575.626 C1777.47,527.244,1785.18,479.303,1797.83,446.389 C1797.83,446.389,1797.84,446.387,1797.84,446.387 z"/>
  </g>
  <g id="Layer 4">
    <path id="Path" style="fill:#21c45d;fill-opacity:1;fill-rule:nonzero;opacity:1;stroke:#21c45d;stroke-linecap:round;stroke-linejoin:round;stroke-miterlimit:10;stroke-opacity:1;stroke-width:1;" d="M1207.56,774.447 C1198.05,783.708,1182.86,783.573,1173.51,774.145 C1173.51,774.145,955.182,553.813,955.182,553.813 C928.714,527.102,885.835,526.181,858.244,551.731 C858.244,551.731,858.244,551.731,858.244,551.731 C827.95,579.784,826.397,627.176,854.788,657.153 C854.788,657.153,1120.73,937.945,1120.73,937.945 C1139.75,958.023,1166.71,968.596,1194.31,966.794 C1194.31,966.794,1194.31,966.794,1194.31,966.794 C1215.97,965.378,1236.4,956.187,1251.83,940.912 C1251.83,940.912,1872.11,326.769,1872.11,326.769 C1897.5,301.637,1897.99,260.777,1873.22,235.038 C1873.22,235.038,1864.54,226.012,1864.54,226.012 C1839.5,199.994,1797.53,199.314,1771.66,224.508 C1771.66,224.508,1207.56,774.447,1207.56,774.447 z"/>
  </g>
</svg>
